<svg xmlns="http://www.w3.org/2000/svg" version="1.1" xmlns:xlink="http://www.w3.org/1999/xlink" xmlns:svgjs="http://svgjs.dev/svgjs" width="1500" height="1500" viewBox="0 0 1500 1500"><rect width="1500" height="1500" fill="#000000"></rect><g transform="matrix(0.6666666666666666,0,0,0.6666666666666666,249.39393939393938,523.3393536450676)"><svg viewBox="0 0 396 180" data-background-color="#fdf8f1" preserveAspectRatio="xMidYMid meet" height="681" width="1500" xmlns="http://www.w3.org/2000/svg" xmlns:xlink="http://www.w3.org/1999/xlink"><g id="tight-bounds" transform="matrix(1,0,0,1,0.2400000000000091,-0.1345454980444174)"><svg viewBox="0 0 395.52 180.26909099608883" height="180.26909099608883" width="395.52"><g><svg viewBox="0 0 395.52 180.26909099608883" height="180.26909099608883" width="395.52"><g transform="matrix(1,0,0,1,0,132.85371450995936)"><svg viewBox="0 0 395.52 47.41537648612946" height="47.41537648612946" width="395.52"><g id="textblocktransform"><svg viewBox="0 0 395.52 47.41537648612946" height="47.41537648612946" width="395.52" id="textblock"><g><svg viewBox="0 0 395.52 47.41537648612946" height="47.41537648612946" width="395.52"><g transform="matrix(1,0,0,1,0,0)"><svg width="395.52" viewBox="4.6 -35.7 302.77 36.300000000000004" height="47.41537648612946" data-palette-color="#fa4238"><g class="wordmark-text-0" data-fill-palette-color="primary" id="text-0"><path d="M7.95 0L4.6 0 4.6-32.85 9.15-32.85 15.6-14.85Q16.2-13.15 16.8-11.4 17.4-9.65 18-7.9L18-7.9 18.2-7.9Q18.8-9.65 19.38-11.4 19.95-13.15 20.55-14.85L20.55-14.85 26.9-32.85 31.5-32.85 31.5 0 28.05 0 28.05-19Q28.05-20.4 28.13-22.05 28.2-23.7 28.3-25.38 28.4-27.05 28.5-28.5L28.5-28.5 28.3-28.5 25.7-21.05 19.3-3.4 16.7-3.4 10.25-21.05 7.65-28.5 7.45-28.5Q7.55-27.05 7.68-25.38 7.8-23.7 7.88-22.05 7.95-20.4 7.95-19L7.95-19 7.95 0ZM45.8 0.6L45.8 0.6Q43.8 0.6 42.2-0.2 40.6-1 39.65-2.53 38.7-4.05 38.7-6.2L38.7-6.2Q38.7-10.2 42.32-12.33 45.95-14.45 53.8-15.3L53.8-15.3Q53.8-16.9 53.37-18.43 52.95-19.95 51.82-20.88 50.7-21.8 48.6-21.8L48.6-21.8Q46.4-21.8 44.52-20.95 42.65-20.1 41.25-19.15L41.25-19.15 39.8-21.65Q40.85-22.35 42.3-23.1 43.75-23.85 45.5-24.35 47.25-24.85 49.2-24.85L49.2-24.85Q52.1-24.85 53.92-23.6 55.75-22.35 56.57-20.15 57.4-17.95 57.4-15L57.4-15 57.4 0 54.4 0 54.1-2.95 53.95-2.95Q52.2-1.5 50.15-0.45 48.1 0.6 45.8 0.6ZM46.75-2.35L46.75-2.35Q48.6-2.35 50.25-3.23 51.9-4.1 53.8-5.75L53.8-5.75 53.8-12.85Q49.5-12.35 47-11.48 44.5-10.6 43.4-9.35 42.3-8.1 42.3-6.45L42.3-6.45Q42.3-4.3 43.62-3.33 44.95-2.35 46.75-2.35ZM72.7 0.6L72.7 0.6Q68.9 0.6 67.45-1.6 66-3.8 66-7.3L66-7.3 66-21.25 62.35-21.25 62.35-24 66.15-24.25 66.6-31.1 69.65-31.1 69.65-24.25 76.3-24.25 76.3-21.25 69.65-21.25 69.65-7.2Q69.65-4.95 70.47-3.68 71.3-2.4 73.5-2.4L73.5-2.4Q74.15-2.4 74.92-2.6 75.7-2.8 76.3-3.05L76.3-3.05 77.05-0.3Q76.05 0.05 74.87 0.33 73.7 0.6 72.7 0.6ZM85.49 0L81.89 0 81.89-35.7 85.49-35.7 85.49-25.8 85.39-20.7Q87.14-22.45 89.09-23.65 91.04-24.85 93.49-24.85L93.49-24.85Q97.34-24.85 99.12-22.45 100.89-20.05 100.89-15.4L100.89-15.4 100.89 0 97.24 0 97.24-14.95Q97.24-18.45 96.12-20.05 94.99-21.65 92.44-21.65L92.44-21.65Q90.49-21.65 88.97-20.68 87.44-19.7 85.49-17.75L85.49-17.75 85.49 0ZM118.49 0.6L118.49 0.6Q115.29 0.6 112.69-0.93 110.09-2.45 108.54-5.28 106.99-8.1 106.99-12.1L106.99-12.1Q106.99-16 108.54-18.88 110.09-21.75 112.57-23.3 115.04-24.85 117.84-24.85L117.84-24.85Q120.84-24.85 122.99-23.45 125.14-22.05 126.27-19.53 127.39-17 127.39-13.5L127.39-13.5Q127.39-12.95 127.34-12.35 127.29-11.75 127.19-11.3L127.19-11.3 109.84-11.3 109.79-13.95 124.14-13.95Q124.14-17.85 122.49-19.88 120.84-21.9 117.89-21.9L117.89-21.9Q116.09-21.9 114.39-20.88 112.69-19.85 111.59-17.68 110.49-15.5 110.49-12.1L110.49-12.1Q110.49-8.85 111.64-6.7 112.79-4.55 114.72-3.45 116.64-2.35 118.94-2.35L118.94-2.35Q120.74-2.35 122.24-2.9 123.74-3.45 125.09-4.3L125.09-4.3 126.44-1.9Q124.89-0.9 122.97-0.15 121.04 0.6 118.49 0.6ZM137.09 0L133.49 0 133.49-24.25 136.49-24.25 136.79-20.65 136.94-20.65Q138.54-22.4 140.46-23.63 142.39-24.85 144.49-24.85L144.49-24.85Q147.34-24.85 148.91-23.58 150.49-22.3 151.19-20.15L151.19-20.15Q153.14-22.25 155.11-23.55 157.09-24.85 159.24-24.85L159.24-24.85Q162.99-24.85 164.79-22.45 166.59-20.05 166.59-15.4L166.59-15.4 166.59 0 162.94 0 162.94-14.95Q162.94-18.45 161.81-20.05 160.69-21.65 158.19-21.65L158.19-21.65Q156.74-21.65 155.16-20.68 153.59-19.7 151.84-17.75L151.84-17.75 151.84 0 148.19 0 148.19-14.95Q148.19-18.45 147.06-20.05 145.94-21.65 143.49-21.65L143.49-21.65Q140.59-21.65 137.09-17.75L137.09-17.75 137.09 0ZM180.24 0.6L180.24 0.6Q178.24 0.6 176.64-0.2 175.04-1 174.09-2.53 173.14-4.05 173.14-6.2L173.14-6.2Q173.14-10.2 176.76-12.33 180.39-14.45 188.24-15.3L188.24-15.3Q188.24-16.9 187.81-18.43 187.39-19.95 186.26-20.88 185.14-21.8 183.04-21.8L183.04-21.8Q180.84-21.8 178.96-20.95 177.09-20.1 175.69-19.15L175.69-19.15 174.24-21.65Q175.29-22.35 176.74-23.1 178.19-23.85 179.94-24.35 181.69-24.85 183.64-24.85L183.64-24.85Q186.54-24.85 188.36-23.6 190.19-22.35 191.01-20.15 191.84-17.95 191.84-15L191.84-15 191.84 0 188.84 0 188.54-2.95 188.39-2.95Q186.64-1.5 184.59-0.45 182.54 0.6 180.24 0.6ZM181.19-2.35L181.19-2.35Q183.04-2.35 184.69-3.23 186.34-4.1 188.24-5.75L188.24-5.75 188.24-12.85Q183.94-12.35 181.44-11.48 178.94-10.6 177.84-9.35 176.74-8.1 176.74-6.45L176.74-6.45Q176.74-4.3 178.06-3.33 179.39-2.35 181.19-2.35ZM207.13 0.6L207.13 0.6Q203.33 0.6 201.88-1.6 200.43-3.8 200.43-7.3L200.43-7.3 200.43-21.25 196.78-21.25 196.78-24 200.58-24.25 201.03-31.1 204.08-31.1 204.08-24.25 210.73-24.25 210.73-21.25 204.08-21.25 204.08-7.2Q204.08-4.95 204.91-3.68 205.73-2.4 207.93-2.4L207.93-2.4Q208.58-2.4 209.36-2.6 210.13-2.8 210.73-3.05L210.73-3.05 211.48-0.3Q210.48 0.05 209.31 0.33 208.13 0.6 207.13 0.6ZM219.93 0L216.33 0 216.33-24.25 219.33-24.25 219.63-19.8 219.78-19.8Q221.03-22.1 222.81-23.48 224.58-24.85 226.68-24.85L226.68-24.85Q227.43-24.85 228.03-24.73 228.63-24.6 229.18-24.35L229.18-24.35 228.48-21.15Q227.88-21.35 227.41-21.45 226.93-21.55 226.18-21.55L226.18-21.55Q224.63-21.55 222.93-20.28 221.23-19 219.93-15.8L219.93-15.8 219.93 0ZM236.93 0L233.33 0 233.33-24.25 236.93-24.25 236.93 0ZM235.18-29.45L235.18-29.45Q234.13-29.45 233.4-30.15 232.68-30.85 232.68-32L232.68-32Q232.68-33.05 233.4-33.75 234.13-34.45 235.18-34.45L235.18-34.45Q236.28-34.45 236.98-33.75 237.68-33.05 237.68-32L237.68-32Q237.68-30.85 236.98-30.15 236.28-29.45 235.18-29.45ZM254.83 0.6L254.83 0.6Q251.63 0.6 249.08-0.9 246.53-2.4 245.03-5.23 243.53-8.05 243.53-12.1L243.53-12.1Q243.53-16.1 245.15-18.98 246.78-21.85 249.38-23.35 251.98-24.85 255.08-24.85L255.08-24.85Q257.48-24.85 259.18-23.98 260.88-23.1 262.13-21.95L262.13-21.95 260.23-19.55Q259.18-20.55 257.95-21.18 256.73-21.8 255.23-21.8L255.23-21.8Q252.93-21.8 251.15-20.58 249.38-19.35 248.35-17.15 247.33-14.95 247.33-12.1L247.33-12.1Q247.33-9.2 248.3-7.03 249.28-4.85 251.03-3.65 252.78-2.45 255.13-2.45L255.13-2.45Q256.88-2.45 258.38-3.18 259.88-3.9 261.03-4.95L261.03-4.95 262.63-2.5Q261.03-1.05 259.03-0.23 257.03 0.6 254.83 0.6ZM271.67 0L268.12 0 268.12-35.7 271.67-35.7 271.67-11 271.82-11 282.57-24.25 286.62-24.25 278.52-14.55 287.72 0 283.77 0 276.42-12 271.67-6.4 271.67 0ZM298.67 0.6L298.67 0.6Q296.07 0.6 293.72-0.38 291.37-1.35 289.67-2.75L289.67-2.75 291.52-5.2Q293.07-3.95 294.8-3.1 296.52-2.25 298.82-2.25L298.82-2.25Q301.32-2.25 302.57-3.45 303.82-4.65 303.82-6.3L303.82-6.3Q303.82-7.6 302.97-8.47 302.12-9.35 300.85-9.98 299.57-10.6 298.17-11.1L298.17-11.1Q296.47-11.7 294.77-12.55 293.07-13.4 291.95-14.7 290.82-16 290.82-18.05L290.82-18.05Q290.82-20.9 293-22.88 295.17-24.85 299.07-24.85L299.07-24.85Q301.27-24.85 303.17-24.05 305.07-23.25 306.42-22.15L306.42-22.15 304.67-19.8Q303.42-20.7 302.1-21.33 300.77-21.95 299.07-21.95L299.07-21.95Q296.67-21.95 295.52-20.83 294.37-19.7 294.37-18.25L294.37-18.25Q294.37-17.05 295.15-16.28 295.92-15.5 297.17-14.95 298.42-14.4 299.82-13.85L299.82-13.85Q301.62-13.2 303.35-12.38 305.07-11.55 306.22-10.2 307.37-8.85 307.37-6.5L307.37-6.5Q307.37-4.6 306.37-2.98 305.37-1.35 303.42-0.38 301.47 0.6 298.67 0.6Z" fill="#ffffff" data-fill-palette-color="primary"></path></g></svg></g></svg></g></svg></g></svg></g><g transform="matrix(1,0,0,1,142.5267751643598,0)"><svg viewBox="0 0 110.46644967128037 110.46644967128037" height="110.46644967128037" width="110.46644967128037"><g><svg></svg></g><g id="icon-0"><svg viewBox="0 0 110.46644967128037 110.46644967128037" height="110.46644967128037" width="110.46644967128037"><g><path d="M0 55.233c0-30.504 24.729-55.233 55.233-55.233 30.504 0 55.233 24.729 55.233 55.233 0 30.504-24.729 55.233-55.233 55.233-30.504 0-55.233-24.729-55.233-55.233zM55.233 106.19c28.143 0 50.957-22.814 50.957-50.957 0-28.143-22.814-50.957-50.957-50.957-28.143 0-50.957 22.814-50.957 50.957 0 28.143 22.814 50.957 50.957 50.957z" data-fill-palette-color="accent" fill="#ffffff" stroke="transparent"></path></g><g transform="matrix(1,0,0,1,28.603318541299153,27.842956292003265)"><svg viewBox="0 0 53.25981258868207 54.78053708727384" height="54.78053708727384" width="53.25981258868207"><g><svg xmlns="http://www.w3.org/2000/svg" xmlns:xlink="http://www.w3.org/1999/xlink" version="1.1" x="0" y="0" viewBox="15.985999999999999 16 68.014 69.956" enable-background="new 0 0 100 100" xml:space="preserve" height="54.78053708727384" width="53.25981258868207" class="icon-cg-0" data-fill-palette-color="accent" id="cg-0"><path d="M40.987 25.852v5.295h-9.853V41h-5.298v-9.853h-9.85v-5.295h9.85V16h5.298v9.852H40.987z" fill="#ffffff" data-fill-palette-color="accent"></path><path d="M62.5 25.512h18v6.68h-18V25.512z" fill="#ffffff" data-fill-palette-color="accent"></path><path d="M24.497 72.167l-8.404-8.457 4.018-4.018 8.402 8.457 8.459-8.457 4.016 4.018-8.509 8.457 8.509 8.457-4.016 4.018-8.459-8.51-8.508 8.51-4.018-4.018L24.497 72.167z" fill="#ffffff" data-fill-palette-color="accent"></path><path d="M84 68.877v5.295H59v-5.295H84zM68.579 58.258c0.842-0.808 1.823-1.213 2.945-1.213 0.562 0 1.09 0.107 1.585 0.322 0.495 0.216 0.933 0.512 1.311 0.891 0.379 0.381 0.685 0.826 0.917 1.337 0.23 0.512 0.347 1.063 0.347 1.658 0 0.528-0.117 1.04-0.347 1.535-0.231 0.496-0.53 0.94-0.892 1.335-0.363 0.397-0.792 0.711-1.287 0.94-0.494 0.232-1.023 0.347-1.583 0.347-0.594 0-1.148-0.107-1.658-0.32-0.514-0.215-0.959-0.512-1.337-0.892-0.379-0.379-0.685-0.824-0.917-1.336-0.23-0.511-0.347-1.047-0.347-1.609C67.315 60.064 67.736 59.067 68.579 58.258zM67.662 80.164c0.231-0.496 0.538-0.933 0.917-1.311 0.378-0.379 0.824-0.677 1.337-0.893 0.51-0.213 1.047-0.32 1.607-0.32 0.562 0 1.09 0.107 1.585 0.32 0.495 0.216 0.933 0.514 1.311 0.893 0.379 0.378 0.685 0.815 0.917 1.311 0.23 0.496 0.347 1.04 0.347 1.634 0 0.496-0.117 0.991-0.347 1.484-0.231 0.496-0.53 0.941-0.892 1.338-0.363 0.396-0.792 0.717-1.287 0.965-0.494 0.248-1.023 0.371-1.583 0.371-0.594 0-1.148-0.115-1.658-0.347-0.514-0.229-0.959-0.536-1.337-0.915-0.379-0.38-0.685-0.826-0.917-1.337-0.23-0.512-0.347-1.031-0.347-1.559C67.315 81.203 67.432 80.659 67.662 80.164z" fill="#ffffff" data-fill-palette-color="accent"></path></svg></g></svg></g></svg></g></svg></g><g></g></svg></g><defs></defs></svg><rect width="395.52" height="180.26909099608883" fill="none" stroke="none" visibility="hidden"></rect></g></svg></g></svg>